<svg width="100%" height="100%" viewBox="0 0 2363 2363" version="1.1" xmlns="http://www.w3.org/2000/svg" xmlns:xlink="http://www.w3.org/1999/xlink" xml:space="preserve" style="fill-rule:evenodd;clip-rule:evenodd;stroke-linejoin:round;stroke-miterlimit:2;">
    <path d="M2362.2,348.198L2362.2,2014.01C2362.2,2206.18 2206.18,2362.2 2014.01,2362.2L348.198,2362.2C156.022,2362.2 0,2206.18 0,2014.01L0,348.198C0,156.022 156.022,0 348.198,0L2014.01,0C2206.18,0 2362.2,156.022 2362.2,348.198ZM1884.14,2028.87C1955.86,2028.87 2014.01,1970.73 2014.01,1899.01L2014.01,463.197C2014.01,391.475 1955.86,333.333 1884.14,333.333L478.062,333.333C406.34,333.333 348.198,391.475 348.198,463.197L348.198,1899.01C348.198,1970.73 406.34,2028.87 478.062,2028.87L1884.14,2028.87Z" style="fill:#87a6e9;"/>
    <path d="M1884.14,2028.87C1955.86,2028.87 2014.01,1970.73 2014.01,1899.01L2014.01,463.197C2014.01,391.475 1955.86,333.333 1884.14,333.333L478.062,333.333C406.34,333.333 348.198,391.475 348.198,463.197L348.198,1899.01C348.198,1970.73 406.34,2028.87 478.062,2028.87L1884.14,2028.87Z" style="fill:#87a6e9;fill-opacity:0.25;"/>
    <g transform="matrix(0.707107,0.707107,-0.471717,0.471717,509.8,-1087.42)">
        <path d="M2362.2,507.339L2362.2,2550.82L1576.65,2550.82L1576.65,2028.87L2014.01,2028.87L2014.01,507.339L2362.2,507.339Z" style="fill:#87a6e9;"/>
    </g>
</svg>
