<?xml version="1.0" encoding="UTF-8" standalone="no"?><!DOCTYPE svg PUBLIC "-//W3C//DTD SVG 1.1//EN" "http://www.w3.org/Graphics/SVG/1.1/DTD/svg11.dtd"><svg width="100%" height="100%" viewBox="0 0 1351 1351" version="1.1" xmlns="http://www.w3.org/2000/svg" xmlns:xlink="http://www.w3.org/1999/xlink" xml:space="preserve" xmlns:serif="http://www.serif.com/" style="fill-rule:evenodd;clip-rule:evenodd;stroke-linejoin:round;stroke-miterlimit:2;"><rect id="Artboard2" x="0" y="0" width="1350.63" height="1350.63" style="fill:none;"/><g><path d="M479.007,835.254l-88.105,419.213l-142.19,-0l58.726,-279.426l-285.528,1.057l28.729,-139.257l428.368,-1.587Zm467.937,-1.733l-88.469,420.946l-142.19,-0l59.09,-281.159l-262.968,0.974l29.268,-139.26l405.269,-1.501Zm63.215,-0.234l-29.268,139.259l224.623,-0.831l28.73,-139.258l-224.085,0.83Zm-434.909,-455.969l-96.243,457.936l-142.301,0.527l66.975,-318.676l-287.299,1.064l28.729,-139.258l430.139,-1.593Zm384.473,-281.159l142.19,-0l-154.969,737.362l-142.301,0.527l155.08,-737.889Zm-328.277,280.951l-29.268,139.259l269.44,-0.997l29.268,-139.26l-269.44,0.998Zm468.484,-1.735l-29.268,139.259l229.324,-0.849l28.73,-139.258l-228.786,0.848Zm-524.68,1.943l-142.301,0.527l59.201,-281.686l142.19,-0l-59.09,281.159Z" style="fill:#1c757c;fill-opacity:0.4;"/><path d="M545.982,516.578l-142.301,0.527l29.268,-139.26l142.301,-0.527l-29.268,139.26Z" style="fill:#1c757c;"/><path d="M1013.92,514.844l-142.301,0.528l29.268,-139.26l142.301,-0.527l-29.268,139.259Z" style="fill:#1c757c;"/><path d="M449.739,974.514l-142.301,0.527l29.268,-139.26l142.301,-0.527l-29.268,139.26Z" style="fill:#1c757c;"/><path d="M917.676,972.781l-142.301,0.527l29.268,-139.26l142.301,-0.527l-29.268,139.26Z" style="fill:#1c757c;"/></g></svg>