<?xml version="1.0" encoding="UTF-8" standalone="no"?><!DOCTYPE svg PUBLIC "-//W3C//DTD SVG 1.1//EN" "http://www.w3.org/Graphics/SVG/1.1/DTD/svg11.dtd"><svg width="100%" height="100%" viewBox="0 0 100 100" version="1.1" xmlns="http://www.w3.org/2000/svg" xmlns:xlink="http://www.w3.org/1999/xlink" xml:space="preserve" xmlns:serif="http://www.serif.com/" style="fill-rule:evenodd;clip-rule:evenodd;stroke-linejoin:round;stroke-miterlimit:2;"><rect id="Artboard5" x="0" y="-0" width="100" height="100" style="fill:none;"/><clipPath id="_clip1"><rect x="0" y="-0" width="100" height="100"/></clipPath><g clip-path="url(#_clip1)"><path d="M53.226,3.223c0.001,-0.856 -0.339,-1.676 -0.944,-2.281c-0.605,-0.606 -1.426,-0.946 -2.282,-0.946c0,0.004 -0,0.004 -0,0.004c-1.78,0 -3.223,1.443 -3.223,3.223c-0.003,4.148 -0.003,11.454 -0.003,15.741c-0,1.782 1.444,3.226 3.226,3.226c-0,-0.01 0,-0.01 0,-0.01c0.853,0 1.672,-0.338 2.275,-0.942c0.603,-0.603 0.942,-1.421 0.942,-2.274c0.009,-4.287 0.009,-11.593 0.009,-15.741Zm-28.111,7.037c-0.502,-0.692 -1.26,-1.156 -2.105,-1.29c-0.845,-0.134 -1.709,0.073 -2.401,0.576c0.002,0.003 0.002,0.003 0.001,0.003c-1.44,1.047 -1.759,3.062 -0.713,4.502c2.436,3.358 6.73,9.268 9.25,12.737c1.048,1.441 3.065,1.76 4.506,0.713c-0.005,-0.007 -0.005,-0.008 -0.005,-0.008c0.691,-0.501 1.153,-1.256 1.287,-2.099c0.133,-0.842 -0.074,-1.703 -0.575,-2.394c-2.512,-3.474 -6.806,-9.384 -9.245,-12.74Zm-18.606,22.217c-0.813,-0.265 -1.699,-0.195 -2.461,0.193c-0.763,0.388 -1.34,1.064 -1.604,1.878c0.003,0.001 0.003,0.001 0.003,0.002c-0.55,1.693 0.376,3.511 2.069,4.061c3.944,1.284 10.893,3.542 14.97,4.867c1.694,0.55 3.514,-0.377 4.065,-2.072c-0.009,-0.003 -0.009,-0.003 -0.009,-0.003c0.264,-0.811 0.194,-1.694 -0.193,-2.454c-0.387,-0.76 -1.061,-1.336 -1.872,-1.599c-4.074,-1.334 -11.023,-3.592 -14.968,-4.873Zm-1.994,28.909c-0.813,0.265 -1.489,0.841 -1.877,1.604c-0.389,0.762 -0.459,1.648 -0.194,2.461c0.003,-0 0.003,-0 0.003,0c0.55,1.693 2.369,2.62 4.062,2.07c3.945,-1.279 10.894,-3.537 14.971,-4.862c1.694,-0.551 2.621,-2.37 2.071,-4.065c-0.009,0.003 -0.009,0.003 -0.009,0.002c-0.264,-0.811 -0.839,-1.484 -1.599,-1.872c-0.76,-0.387 -1.643,-0.456 -2.454,-0.193c-4.08,1.316 -11.029,3.574 -14.974,4.855Zm15.38,24.561c-0.503,0.692 -0.711,1.556 -0.577,2.401c0.134,0.845 0.598,1.602 1.29,2.105c0.003,-0.002 0.003,-0.002 0.003,-0.002c1.44,1.046 3.456,0.727 4.502,-0.713c2.441,-3.354 6.735,-9.264 9.255,-12.733c1.047,-1.441 0.727,-3.459 -0.714,-4.506c-0.006,0.008 -0.006,0.007 -0.006,0.007c-0.69,-0.501 -1.551,-0.708 -2.394,-0.574c-0.843,0.133 -1.598,0.596 -2.099,1.286c-2.528,3.463 -6.822,9.373 -9.26,12.729Zm26.879,10.83c-0.001,0.856 0.339,1.676 0.944,2.281c0.605,0.606 1.426,0.946 2.282,0.946c-0,-0.004 0,-0.004 0,-0.004c1.78,-0 3.223,-1.443 3.223,-3.223c0.003,-4.148 0.003,-11.454 0.003,-15.741c0,-1.782 -1.444,-3.226 -3.226,-3.226c0,0.01 -0,0.01 -0,0.01c-0.853,-0 -1.672,0.338 -2.275,0.942c-0.603,0.603 -0.942,1.421 -0.942,2.274c-0.009,4.287 -0.009,11.593 -0.009,15.741Zm28.111,-7.037c0.502,0.692 1.26,1.156 2.105,1.29c0.845,0.134 1.709,-0.073 2.401,-0.576c-0.002,-0.003 -0.002,-0.003 -0.001,-0.003c1.44,-1.047 1.759,-3.062 0.713,-4.502c-2.436,-3.358 -6.73,-9.268 -9.25,-12.737c-1.048,-1.441 -3.065,-1.76 -4.506,-0.713c0.005,0.007 0.005,0.008 0.005,0.008c-0.691,0.501 -1.153,1.256 -1.287,2.099c-0.133,0.842 0.074,1.703 0.575,2.394c2.512,3.474 6.806,9.384 9.245,12.74Zm18.606,-22.217c0.813,0.265 1.699,0.195 2.461,-0.193c0.763,-0.388 1.34,-1.064 1.604,-1.878c-0.003,-0.001 -0.003,-0.001 -0.003,-0.002c0.55,-1.693 -0.376,-3.511 -2.069,-4.061c-3.944,-1.284 -10.893,-3.542 -14.97,-4.867c-1.694,-0.55 -3.514,0.377 -4.065,2.072c0.009,0.003 0.009,0.003 0.009,0.003c-0.264,0.811 -0.194,1.694 0.193,2.454c0.387,0.76 1.061,1.336 1.872,1.599c4.074,1.334 11.023,3.592 14.968,4.873Zm1.994,-28.909c0.813,-0.265 1.489,-0.841 1.877,-1.604c0.389,-0.762 0.459,-1.648 0.194,-2.461c-0.003,0 -0.003,0 -0.003,-0c-0.55,-1.693 -2.369,-2.62 -4.062,-2.07c-3.945,1.279 -10.894,3.537 -14.971,4.862c-1.694,0.551 -2.621,2.37 -2.071,4.065c0.009,-0.003 0.009,-0.003 0.009,-0.002c0.264,0.811 0.839,1.484 1.599,1.872c0.76,0.387 1.643,0.456 2.454,0.193c4.08,-1.316 11.029,-3.574 14.974,-4.855Zm-15.38,-24.561c0.503,-0.692 0.711,-1.556 0.577,-2.401c-0.134,-0.845 -0.598,-1.602 -1.29,-2.105c-0.003,0.002 -0.003,0.002 -0.003,0.002c-1.44,-1.046 -3.456,-0.727 -4.502,0.713c-2.441,3.354 -6.735,9.264 -9.255,12.733c-1.047,1.441 -0.727,3.459 0.714,4.506c0.006,-0.008 0.006,-0.007 0.006,-0.007c0.69,0.501 1.551,0.708 2.394,0.574c0.843,-0.133 1.598,-0.596 2.099,-1.286c2.528,-3.463 6.822,-9.373 9.26,-12.729Z" style="fill:#1c7526;"/></g></svg>