<?xml version="1.0" encoding="UTF-8" standalone="no"?><!DOCTYPE svg PUBLIC "-//W3C//DTD SVG 1.1//EN" "http://www.w3.org/Graphics/SVG/1.1/DTD/svg11.dtd"><svg width="100%" height="100%" viewBox="0 0 2860 2860" version="1.1" xmlns="http://www.w3.org/2000/svg" xmlns:xlink="http://www.w3.org/1999/xlink" xml:space="preserve" xmlns:serif="http://www.serif.com/" style="fill-rule:evenodd;clip-rule:evenodd;stroke-linejoin:round;stroke-miterlimit:2;"><path d="M2859.35,1429.67c-0,-789.588 -640.087,-1429.67 -1429.67,-1429.67c-0,-0 -0.001,0 -0.001,-0c-789.588,0 -1429.67,640.087 -1429.67,1429.67c-0,0 -0,0.001 -0,0.001c0,789.588 640.087,1429.67 1429.67,1429.67c0,-0 0.001,-0 0.001,-0c789.588,-0 1429.67,-640.087 1429.67,-1429.67l-0,-0.001Z" style="fill:#0062ff;"/><clipPath id="_clip1"><path d="M2859.35,1429.67c-0,-789.588 -640.087,-1429.67 -1429.67,-1429.67c-0,-0 -0.001,0 -0.001,-0c-789.588,0 -1429.67,640.087 -1429.67,1429.67c-0,0 -0,0.001 -0,0.001c0,789.588 640.087,1429.67 1429.67,1429.67c0,-0 0.001,-0 0.001,-0c789.588,-0 1429.67,-640.087 1429.67,-1429.67l-0,-0.001Z"/></clipPath><g clip-path="url(#_clip1)"><g><path d="M576.291,953.329l-47.78,229.638l1002.83,-0l-769.849,728.773l1520.74,0l46.95,-229.159l-981.581,0l771.417,-729.252l-1542.72,0Z" style="fill:#fff;"/><path d="M2078.5,1085.08l137.513,-131.75l264.94,-0.001l-47.432,223.739l-375.206,-0l-90.175,437.016l-76.538,366.713l-104.024,502.114l-256.237,-0l103.872,-502.114l256.389,-0l76.538,-366.713l-257.046,-0l49.097,-228.295l318.309,-300.709l41.192,-200.787l-257.321,0l104.724,-503.504l256.555,0l-145.15,704.291Z" style="fill:#fff;fill-opacity:0.5;"/><path d="M864.283,1688l90.853,-435.207l254.005,-0l76.387,-368.502l-253.358,0l104.723,-503.504l253.008,0l-435.754,2102.12l-255.209,-0l105.342,-501.981l253.474,2.171l114.736,-553.498l-508.732,482.137l-286.537,0l47.211,-223.738l439.851,-0Z" style="fill:#fff;fill-opacity:0.5;"/></g></g></svg>