<?xml version="1.0" encoding="UTF-8" standalone="no"?><!DOCTYPE svg PUBLIC "-//W3C//DTD SVG 1.1//EN" "http://www.w3.org/Graphics/SVG/1.1/DTD/svg11.dtd"><svg width="100%" height="100%" viewBox="0 0 2860 2860" version="1.1" xmlns="http://www.w3.org/2000/svg" xmlns:xlink="http://www.w3.org/1999/xlink" xml:space="preserve" xmlns:serif="http://www.serif.com/" style="fill-rule:evenodd;clip-rule:evenodd;stroke-linejoin:round;stroke-miterlimit:2;"><path d="M2859.35,508.054c-0,-280.591 -227.463,-508.054 -508.054,-508.054c-519.938,-0 -1323.31,0 -1843.24,-0c-280.591,0 -508.054,227.463 -508.054,508.054l-0,1843.24c0,280.591 227.463,508.054 508.054,508.054c519.938,-0 1323.31,-0 1843.24,-0c280.591,-0 508.054,-227.463 508.054,-508.054c-0,-519.938 -0,-1323.31 -0,-1843.24Z" style="fill:#0062ff;"/><clipPath id="_clip1"><path d="M2859.35,508.054c-0,-280.591 -227.463,-508.054 -508.054,-508.054c-519.938,-0 -1323.31,0 -1843.24,-0c-280.591,0 -508.054,227.463 -508.054,508.054l-0,1843.24c0,280.591 227.463,508.054 508.054,508.054c519.938,-0 1323.31,-0 1843.24,-0c280.591,-0 508.054,-227.463 508.054,-508.054c-0,-519.938 -0,-1323.31 -0,-1843.24Z"/></clipPath><g clip-path="url(#_clip1)"><g><path d="M457.503,884.17l-54.469,261.783l1143.21,-0l-877.614,830.789l1733.61,-0l53.523,-261.238l-1118.99,0l879.402,-831.334l-1758.68,0Z" style="fill:#fff;"/><path d="M2170,1034.36l156.762,-150.192l302.027,-0.001l-54.072,255.058l-427.729,0l-102.797,498.191l-87.252,418.046l-118.586,572.401l-292.105,0l118.412,-572.401l292.279,0l87.252,-418.046l-293.027,-0l55.969,-260.252l362.867,-342.804l46.958,-228.893l-293.342,0l119.384,-573.985l292.468,-0l-165.468,802.878Z" style="fill:#fff;fill-opacity:0.5;"/><path d="M785.809,1721.68l103.571,-496.129l289.56,0l87.08,-420.085l-288.824,0l119.383,-573.985l288.424,-0l-496.751,2396.38l-290.934,0l120.088,-572.249l288.956,2.475l130.797,-630.978l-579.946,549.628l-326.647,-0l53.82,-255.058l501.423,-0Z" style="fill:#fff;fill-opacity:0.5;"/></g></g></svg>